<svg width="286" height="195" viewBox="0 0 286 195" fill="none" xmlns="http://www.w3.org/2000/svg">
<path d="M0.751953 174.003C1.05957 173.524 1.32731 173.177 1.55518 172.96C1.79443 172.744 2.13053 172.465 2.56348 172.123C3.04199 171.918 3.52051 172.055 3.99902 172.533C4.69401 173.228 5.27507 174.219 5.74219 175.507C6.2207 176.794 6.77897 177.825 7.41699 178.6C7.61068 178.862 7.82145 178.913 8.04932 178.754C8.28857 178.583 8.48796 178.401 8.64746 178.207C9.11458 177.672 9.56462 176.92 9.99756 175.951C10.4419 174.983 10.8179 174.157 11.1255 173.473C11.3078 173.052 11.5072 172.75 11.7236 172.567C11.9515 172.374 12.2819 172.374 12.7148 172.567C13.125 172.772 13.4668 173.035 13.7402 173.354C14.0251 173.661 14.2985 174.026 14.5605 174.447C14.8568 174.914 14.9308 175.535 14.7827 176.31C14.589 177.301 14.2472 178.281 13.7573 179.25C13.2788 180.218 12.8174 181.118 12.373 181.95C11.8945 182.804 11.3932 183.625 10.8691 184.411C10.3564 185.197 9.83236 185.977 9.29688 186.752C8.79557 187.436 8.29427 188.119 7.79297 188.803C7.29167 189.486 6.74479 190.102 6.15234 190.648C5.52572 191.229 4.94466 191.605 4.40918 191.776C4.01042 191.902 3.5376 191.816 2.99072 191.52C2.45524 191.235 2.07926 190.922 1.86279 190.58C1.64632 190.25 1.42985 189.896 1.21338 189.521C1.0083 189.145 1.01969 188.786 1.24756 188.444C1.42985 188.17 1.69759 187.891 2.05078 187.606C2.41536 187.333 2.72298 187.031 2.97363 186.701C3.2015 186.416 3.41797 186.182 3.62305 186C3.83952 185.806 4.13574 185.396 4.51172 184.77C5.22949 183.79 5.2181 182.787 4.47754 181.762C4.18132 181.249 3.75977 180.628 3.21289 179.899C2.67741 179.158 2.24447 178.555 1.91406 178.087C1.6862 177.757 1.45833 177.415 1.23047 177.062C1.014 176.697 0.826009 176.316 0.666504 175.917C0.506999 175.564 0.421549 175.25 0.410156 174.977C0.410156 174.692 0.524089 174.368 0.751953 174.003ZM24.3188 180.172C24.1707 180.286 24.0169 180.395 23.8574 180.497C22.946 181.078 21.9377 181.391 20.8325 181.437C19.9666 181.483 19.1064 181.357 18.252 181.061C17.3975 180.765 16.7424 180.281 16.2866 179.608C15.7967 178.879 15.5518 178.036 15.5518 177.079C15.5632 176.111 15.6258 175.239 15.7397 174.464C15.7625 174.236 15.8138 173.878 15.8936 173.388C15.9847 172.886 16.1043 172.385 16.2524 171.884C16.4006 171.371 16.5828 170.927 16.7993 170.551C17.0158 170.163 17.2835 169.958 17.6025 169.936C18.0583 169.913 18.6051 169.953 19.2432 170.055C19.8812 170.158 20.354 170.38 20.6616 170.722C20.7756 170.858 20.7585 171.126 20.6104 171.525C20.4622 171.912 20.3597 172.191 20.3027 172.362C20.0635 172.966 19.8869 173.764 19.7729 174.755C19.659 175.746 19.6704 176.561 19.8071 177.199C19.9894 177.996 20.4338 178.395 21.1401 178.395C21.8465 178.384 22.5358 177.939 23.208 177.062C23.5042 176.686 23.7435 176.213 23.9258 175.644C24.222 174.8 24.3758 173.992 24.3872 173.217C24.41 172.431 24.3701 171.73 24.2676 171.115C24.2448 170.944 24.2277 170.767 24.2163 170.585C24.2049 170.482 24.2049 170.391 24.2163 170.312C24.2277 169.958 24.3132 169.708 24.4727 169.56C24.7005 169.366 25.0651 169.218 25.5664 169.115C26.0791 169.013 26.5405 168.984 26.9507 169.03C27.1899 169.064 27.3665 169.201 27.4805 169.44C27.5488 169.577 27.6001 169.719 27.6343 169.867C27.6685 169.913 27.6969 169.958 27.7197 170.004C27.8792 170.346 28.0216 170.83 28.147 171.457C28.2837 172.117 28.3805 172.995 28.4375 174.088C28.4945 175.171 28.5173 176.299 28.5059 177.472C28.4945 178.634 28.4432 179.768 28.3521 180.873C28.2609 181.978 28.1299 182.89 27.959 183.607C27.8792 183.972 27.7653 184.354 27.6172 184.752C27.4691 185.14 27.2412 185.43 26.9336 185.624C26.7855 185.727 26.5177 185.818 26.1304 185.897C25.743 185.977 25.3442 186.011 24.9341 186C24.5353 185.977 24.1878 185.886 23.8916 185.727C23.5954 185.567 23.4473 185.299 23.4473 184.923C23.4701 184.73 23.5042 184.53 23.5498 184.325C23.6068 184.109 23.658 183.904 23.7036 183.71C23.9771 182.628 24.1821 181.448 24.3188 180.172ZM40.1953 183.026C39.7282 183.687 39.1642 184.257 38.5034 184.735C37.5578 185.43 36.4925 185.806 35.3076 185.863C34.3962 185.909 33.4847 185.755 32.5732 185.402C31.6732 185.049 30.9839 184.462 30.5054 183.642C29.9813 182.764 29.7249 181.745 29.7363 180.583C29.7477 179.409 29.8104 178.349 29.9243 177.404C29.9471 177.13 30.0041 176.697 30.0952 176.105C30.1864 175.501 30.306 174.892 30.4541 174.276C30.6136 173.661 30.8073 173.12 31.0352 172.653C31.2744 172.186 31.5592 171.946 31.8896 171.935C32.3796 171.901 32.9606 171.946 33.6328 172.072C34.305 172.197 34.8063 172.471 35.1367 172.892C35.2507 173.052 35.2279 173.371 35.0684 173.849C34.9089 174.328 34.8006 174.669 34.7437 174.875C34.493 175.604 34.305 176.566 34.1797 177.763C34.0658 178.959 34.0828 179.95 34.231 180.736C34.4132 181.693 34.8804 182.172 35.6323 182.172C36.3843 182.16 37.1134 181.619 37.8198 180.548C38.1274 180.104 38.3838 179.534 38.5889 178.839C38.68 178.156 38.7882 177.256 38.9136 176.139C39.0389 175.023 39.0503 174.094 38.9478 173.354C38.925 173.16 38.9022 172.949 38.8794 172.721C38.8566 172.482 38.8908 172.265 38.9819 172.072C39.0275 171.935 39.1073 171.821 39.2212 171.73C39.4832 171.468 39.8592 171.24 40.3491 171.046C40.8504 170.841 41.3289 170.773 41.7847 170.841C41.8416 170.853 41.8929 170.87 41.9385 170.893C42.0296 170.893 42.1151 170.898 42.1948 170.91C42.605 170.944 42.9297 171.052 43.1689 171.234C43.4196 171.417 43.5278 171.776 43.4937 172.311C43.3683 174.134 43.4196 176.145 43.6475 178.344C43.8867 180.531 44.3083 182.462 44.9121 184.137C44.9805 184.319 45.0488 184.507 45.1172 184.701C45.1855 184.895 45.2368 185.077 45.271 185.248C45.2938 185.601 45.1571 185.852 44.8608 186C44.5646 186.137 44.2057 186.211 43.7842 186.222C43.374 186.245 42.9639 186.216 42.5537 186.137C42.1436 186.068 41.853 185.989 41.6821 185.897C41.3631 185.715 41.1125 185.447 40.9302 185.094C40.7479 184.741 40.5998 184.394 40.4858 184.052C40.3833 183.744 40.2865 183.402 40.1953 183.026ZM59.8999 178.788C59.3644 178.891 58.9429 179.261 58.6353 179.899C58.3276 180.526 58.4074 181.323 58.8745 182.292C59.3416 183.26 60.0822 183.721 61.0962 183.676C61.7342 183.642 62.207 183.442 62.5146 183.078C62.8337 182.713 63.0273 182.28 63.0957 181.779C63.1641 181.209 63.0273 180.674 62.6855 180.172C62.3551 179.66 61.945 179.278 61.4551 179.027C60.9652 178.765 60.4468 178.686 59.8999 178.788ZM63.728 175.507C63.6711 175.028 63.2153 174.618 62.3608 174.276C61.8368 174.037 61.1418 173.986 60.2759 174.123C59.6037 174.214 59.0226 174.453 58.5327 174.84C58.0542 175.228 57.12 175.148 55.73 174.601C55.2401 174.385 55.2515 173.98 55.7642 173.388C56.2769 172.784 56.687 172.379 56.9946 172.174C57.1997 172.026 57.4162 171.895 57.644 171.781C58.2251 171.485 58.8289 171.291 59.4556 171.2C60.0822 171.109 60.7031 171.069 61.3184 171.081C62.1501 171.081 62.9533 171.177 63.728 171.371C64.3547 171.531 64.9528 171.753 65.5225 172.038C66.0921 172.322 66.5763 172.875 66.9751 173.695C67.3853 174.516 67.522 175.495 67.3853 176.635C67.2599 177.763 67.1574 179.101 67.0776 180.651C66.9751 182.36 67.0947 183.881 67.4365 185.214C67.4593 185.362 67.4935 185.516 67.5391 185.675C67.5846 185.823 67.6017 185.966 67.5903 186.103C67.5789 186.365 67.4137 186.541 67.0947 186.632C66.7871 186.735 66.4852 186.786 66.189 186.786C65.8927 186.786 65.5566 186.746 65.1807 186.667C64.8047 186.587 64.5369 186.501 64.3774 186.41C64.1154 186.239 63.9217 186.011 63.7964 185.727C63.7052 185.521 63.6312 185.322 63.5742 185.128C63.278 185.299 62.959 185.453 62.6172 185.59C61.8652 185.909 61.0734 186.074 60.2417 186.085C59.3758 186.074 58.5669 185.926 57.8149 185.641C57.2339 185.413 56.7041 185.117 56.2256 184.752C55.7471 184.388 55.3939 183.949 55.166 183.437C54.9382 182.924 54.8413 182.343 54.8755 181.693C54.9211 180.748 55.2059 179.905 55.73 179.164C56.0034 178.799 56.2541 178.469 56.4819 178.173C56.7212 177.877 57.2168 177.461 57.9688 176.925C58.7321 176.39 59.6379 176.076 60.686 175.985C61.7456 175.883 62.7767 175.991 63.7793 176.31C63.8135 176.253 63.7964 175.985 63.728 175.507ZM73.1445 180.719C73.4635 182.052 73.7769 183.061 74.0845 183.744C74.1414 183.904 74.2041 184.069 74.2725 184.24C74.3522 184.411 74.4092 184.582 74.4434 184.752C74.4775 185.06 74.3465 185.294 74.0503 185.453C73.7541 185.613 73.4066 185.727 73.0078 185.795C72.609 185.852 72.2786 185.863 72.0166 185.829C71.7546 185.784 71.5381 185.721 71.3672 185.641C71.0482 185.516 70.7918 185.294 70.5981 184.975C70.4159 184.656 70.2677 184.348 70.1538 184.052C69.9146 183.471 69.7038 182.724 69.5215 181.813C69.3392 180.89 69.1911 179.939 69.0771 178.959C68.9746 177.979 68.9062 177.034 68.8721 176.122C68.8493 175.199 68.8778 174.447 68.9575 173.866C69.0259 173.365 69.1398 172.943 69.2993 172.602C69.4019 172.362 69.5671 172.18 69.7949 172.055C70.0342 171.929 70.2279 171.844 70.376 171.798C70.5355 171.753 70.752 171.73 71.0254 171.73C71.4355 171.741 71.7603 171.815 71.9995 171.952C72.2388 172.089 72.347 172.408 72.3242 172.909C72.2445 174.573 72.3641 176.31 72.6831 178.122C73.6743 177.996 74.637 177.871 75.5713 177.746C76.5169 177.62 77.2575 177.535 77.793 177.489C77.7474 176.68 77.736 175.911 77.7588 175.182C77.7816 174.442 77.8385 173.815 77.9297 173.302C77.9753 172.983 78.055 172.653 78.1689 172.311C78.2943 171.969 78.505 171.696 78.8013 171.491C78.9494 171.388 79.2171 171.286 79.6045 171.183C79.9919 171.081 80.3166 171.018 80.5786 170.995C80.8521 170.972 81.1483 171.012 81.4673 171.115C81.7863 171.217 81.9572 171.422 81.98 171.73C81.98 171.912 81.9629 172.095 81.9287 172.277C81.8945 172.448 81.8604 172.619 81.8262 172.79C81.4958 174.385 81.3932 176.196 81.5186 178.224C81.6439 180.241 81.9173 182.075 82.3389 183.727C82.4528 184.217 82.4015 184.559 82.1851 184.752C81.98 184.935 81.6838 185.06 81.2964 185.128C81.0229 185.185 80.7837 185.225 80.5786 185.248C80.3735 185.259 80.14 185.22 79.8779 185.128C79.6501 185.06 79.4564 184.912 79.2969 184.684C79.0804 184.388 78.8867 184 78.7158 183.522C78.4766 182.85 78.2259 181.699 77.9639 180.07C77.4056 180.252 76.6024 180.4 75.5542 180.514C74.5174 180.617 73.7142 180.685 73.1445 180.719ZM86.1328 171.422L92.644 171.576C92.9175 171.656 93.2023 171.77 93.4985 171.918C93.7948 172.066 94.0169 172.277 94.165 172.55C94.3245 172.847 94.4043 173.388 94.4043 174.174C94.4043 174.96 94.1195 175.33 93.5498 175.285C93.3903 175.285 92.5472 175.216 91.0205 175.08C89.5052 174.943 88.252 174.897 87.2607 174.943C87.1468 175.706 87.0841 177.136 87.0728 179.232C87.0728 181.329 87.1981 182.884 87.4487 183.898C87.4829 184.057 87.5228 184.228 87.5684 184.411C87.6253 184.593 87.6538 184.77 87.6538 184.94C87.6424 185.259 87.4658 185.476 87.124 185.59C86.7936 185.704 86.355 185.755 85.8081 185.744C85.2726 185.732 84.908 185.692 84.7144 185.624C84.5207 185.544 84.3384 185.447 84.1675 185.333C83.8599 185.151 83.6377 184.889 83.501 184.547C83.3643 184.206 83.2617 183.875 83.1934 183.556C83.0566 182.941 82.9655 182.166 82.9199 181.232C82.8857 180.286 82.8914 179.318 82.937 178.327C82.9826 177.335 83.068 176.384 83.1934 175.473C83.3301 174.55 83.4896 173.809 83.6719 173.251C83.8428 172.75 84.0251 172.351 84.2188 172.055C84.3896 171.838 84.5947 171.684 84.834 171.593C84.9821 171.559 85.1359 171.531 85.2954 171.508C85.4663 171.485 85.7454 171.457 86.1328 171.422ZM102.761 174.481C102.123 178.036 101.109 181.437 99.7192 184.684C99.5597 185.094 99.3262 185.385 99.0186 185.556C98.7109 185.715 98.3464 185.829 97.9248 185.897C97.5146 185.954 97.1729 185.966 96.8994 185.932C96.6374 185.886 96.4152 185.823 96.2329 185.744C95.9139 185.607 95.743 185.225 95.7202 184.599C95.7088 183.972 96.0905 182.861 96.8652 181.266C97.64 179.671 98.1812 178.013 98.4888 176.293C98.7964 174.573 98.9901 173.41 99.0698 172.807C99.1496 172.294 99.2692 171.861 99.4287 171.508C99.5426 171.269 99.7078 171.081 99.9243 170.944C100.175 170.807 100.38 170.722 100.54 170.688C100.699 170.642 100.927 170.619 101.223 170.619C105.177 170.596 107.29 170.574 107.563 170.551C107.848 170.528 108.15 170.574 108.469 170.688C108.8 170.79 108.982 171.001 109.016 171.32C109.016 171.491 108.993 171.673 108.948 171.867C108.914 172.049 108.879 172.226 108.845 172.396C108.503 174.037 108.401 175.906 108.538 178.002C108.674 180.087 108.953 182.104 109.375 184.052C109.489 184.542 109.438 184.883 109.221 185.077C109.016 185.271 108.708 185.408 108.298 185.487C108.025 185.544 107.78 185.584 107.563 185.607C107.358 185.618 107.119 185.578 106.846 185.487C106.606 185.419 106.401 185.271 106.23 185.043C106.014 184.724 105.82 184.319 105.649 183.83C105.399 183.135 105.085 179.95 104.709 174.276L102.761 174.481ZM120.723 183.026C120.256 183.687 119.692 184.257 119.031 184.735C118.085 185.43 117.02 185.806 115.835 185.863C114.924 185.909 114.012 185.755 113.101 185.402C112.201 185.049 111.511 184.462 111.033 183.642C110.509 182.764 110.252 181.745 110.264 180.583C110.275 179.409 110.338 178.349 110.452 177.404C110.474 177.13 110.531 176.697 110.623 176.105C110.714 175.501 110.833 174.892 110.981 174.276C111.141 173.661 111.335 173.12 111.562 172.653C111.802 172.186 112.087 171.946 112.417 171.935C112.907 171.901 113.488 171.946 114.16 172.072C114.832 172.197 115.334 172.471 115.664 172.892C115.778 173.052 115.755 173.371 115.596 173.849C115.436 174.328 115.328 174.669 115.271 174.875C115.02 175.604 114.832 176.566 114.707 177.763C114.593 178.959 114.61 179.95 114.758 180.736C114.941 181.693 115.408 182.172 116.16 182.172C116.912 182.16 117.641 181.619 118.347 180.548C118.655 180.104 118.911 179.534 119.116 178.839C119.207 178.156 119.316 177.256 119.441 176.139C119.566 175.023 119.578 174.094 119.475 173.354C119.452 173.16 119.43 172.949 119.407 172.721C119.384 172.482 119.418 172.265 119.509 172.072C119.555 171.935 119.635 171.821 119.749 171.73C120.011 171.468 120.387 171.24 120.876 171.046C121.378 170.841 121.856 170.773 122.312 170.841C122.369 170.853 122.42 170.87 122.466 170.893C122.557 170.893 122.642 170.898 122.722 170.91C123.132 170.944 123.457 171.052 123.696 171.234C123.947 171.417 124.055 171.776 124.021 172.311C123.896 174.134 123.947 176.145 124.175 178.344C124.414 180.531 124.836 182.462 125.439 184.137C125.508 184.319 125.576 184.507 125.645 184.701C125.713 184.895 125.764 185.077 125.798 185.248C125.821 185.601 125.684 185.852 125.388 186C125.092 186.137 124.733 186.211 124.312 186.222C123.901 186.245 123.491 186.216 123.081 186.137C122.671 186.068 122.38 185.989 122.209 185.897C121.89 185.715 121.64 185.447 121.458 185.094C121.275 184.741 121.127 184.394 121.013 184.052C120.911 183.744 120.814 183.402 120.723 183.026ZM136.992 183.026C136.525 183.687 135.961 184.257 135.3 184.735C134.355 185.43 133.289 185.806 132.104 185.863C131.193 185.909 130.282 185.755 129.37 185.402C128.47 185.049 127.781 184.462 127.302 183.642C126.778 182.764 126.522 181.745 126.533 180.583C126.545 179.409 126.607 178.349 126.721 177.404C126.744 177.13 126.801 176.697 126.892 176.105C126.983 175.501 127.103 174.892 127.251 174.276C127.41 173.661 127.604 173.12 127.832 172.653C128.071 172.186 128.356 171.946 128.687 171.935C129.176 171.901 129.757 171.946 130.43 172.072C131.102 172.197 131.603 172.471 131.934 172.892C132.048 173.052 132.025 173.371 131.865 173.849C131.706 174.328 131.597 174.669 131.541 174.875C131.29 175.604 131.102 176.566 130.977 177.763C130.863 178.959 130.88 179.95 131.028 180.736C131.21 181.693 131.677 182.172 132.429 182.172C133.181 182.16 133.91 181.619 134.617 180.548C134.924 180.104 135.181 179.534 135.386 178.839C135.477 178.156 135.585 177.256 135.71 176.139C135.836 175.023 135.847 174.094 135.745 173.354C135.722 173.16 135.699 172.949 135.676 172.721C135.653 172.482 135.688 172.265 135.779 172.072C135.824 171.935 135.904 171.821 136.018 171.73C136.28 171.468 136.656 171.24 137.146 171.046C137.647 170.841 138.126 170.773 138.582 170.841C138.639 170.853 138.69 170.87 138.735 170.893C138.826 170.893 138.912 170.898 138.992 170.91C139.402 170.944 139.727 171.052 139.966 171.234C140.216 171.417 140.325 171.776 140.291 172.311C140.165 174.134 140.216 176.145 140.444 178.344C140.684 180.531 141.105 182.462 141.709 184.137C141.777 184.319 141.846 184.507 141.914 184.701C141.982 184.895 142.034 185.077 142.068 185.248C142.091 185.601 141.954 185.852 141.658 186C141.361 186.137 141.003 186.211 140.581 186.222C140.171 186.245 139.761 186.216 139.351 186.137C138.94 186.068 138.65 185.989 138.479 185.897C138.16 185.715 137.909 185.447 137.727 185.094C137.545 184.741 137.397 184.394 137.283 184.052C137.18 183.744 137.083 183.402 136.992 183.026ZM134.104 170.893C133.888 170.904 133.682 170.898 133.489 170.875C133.284 170.853 133.067 170.813 132.839 170.756C132.623 170.688 132.395 170.608 132.156 170.517C131.905 170.414 131.666 170.3 131.438 170.175C131.358 170.129 131.278 170.084 131.199 170.038C131.119 169.993 131.045 169.953 130.977 169.918C130.908 169.873 130.84 169.827 130.771 169.782C130.703 169.736 130.635 169.696 130.566 169.662C130.509 169.605 130.447 169.56 130.378 169.525C130.321 169.48 130.264 169.434 130.208 169.389C130.025 169.241 129.866 169.104 129.729 168.979C129.592 168.853 129.661 168.66 129.934 168.397C129.957 168.375 129.98 168.358 130.002 168.346C130.025 168.323 130.048 168.301 130.071 168.278C130.059 168.289 130.105 168.244 130.208 168.141C130.287 168.073 130.344 168.027 130.378 168.004C130.732 167.685 130.977 167.571 131.113 167.663C131.261 167.742 131.546 167.896 131.968 168.124C132.013 168.158 132.053 168.187 132.087 168.209C132.133 168.221 132.173 168.238 132.207 168.261C132.287 168.306 132.361 168.34 132.429 168.363C132.611 168.432 132.743 168.483 132.822 168.517C133.005 168.563 133.13 168.597 133.198 168.62C133.267 168.631 133.386 168.648 133.557 168.671C133.682 168.671 133.802 168.671 133.916 168.671C133.996 168.66 134.087 168.642 134.189 168.62C134.258 168.608 134.355 168.574 134.48 168.517C134.583 168.46 134.679 168.392 134.771 168.312C134.873 168.244 134.964 168.164 135.044 168.073C135.044 168.084 135.084 168.05 135.164 167.97C135.232 167.89 135.295 167.822 135.352 167.765C135.42 167.685 135.511 167.589 135.625 167.475C135.819 167.27 135.967 167.133 136.069 167.064C136.183 166.996 136.36 167.082 136.599 167.321C136.656 167.378 136.719 167.44 136.787 167.509C136.867 167.577 136.947 167.651 137.026 167.731C137.072 167.777 137.118 167.822 137.163 167.868C137.209 167.902 137.254 167.942 137.3 167.987C137.3 167.999 137.317 168.016 137.351 168.039C137.362 168.05 137.397 168.084 137.454 168.141C137.442 168.13 137.499 168.187 137.625 168.312C137.818 168.506 137.909 168.642 137.898 168.722C137.887 168.802 137.767 168.967 137.539 169.218C137.493 169.275 137.385 169.377 137.214 169.525C137.123 169.628 136.998 169.73 136.838 169.833C136.69 169.947 136.542 170.044 136.394 170.124C136.235 170.237 136.047 170.34 135.83 170.431C135.591 170.545 135.397 170.625 135.249 170.67C135.078 170.727 134.884 170.779 134.668 170.824C134.463 170.858 134.275 170.881 134.104 170.893ZM153.928 171.388C154.555 171.525 155.05 171.701 155.415 171.918C155.848 172.18 156.064 172.488 156.064 172.841C156.064 173.262 156.047 173.598 156.013 173.849C155.99 174.088 155.876 174.39 155.671 174.755C155.375 175.279 155.085 175.541 154.8 175.541C154.549 175.541 154.304 175.501 154.065 175.421C153.826 175.33 153.586 175.245 153.347 175.165C152.857 175.006 152.196 174.943 151.365 174.977C150.533 175 149.747 175.176 149.006 175.507C148.266 175.837 147.594 176.367 146.99 177.096C146.397 177.814 146.403 179.039 147.007 180.771C147.292 181.625 147.884 182.24 148.784 182.616C149.684 182.981 150.601 183.118 151.536 183.026C152.253 182.958 152.926 182.508 153.552 181.676C154.179 180.833 155.204 180.845 156.628 181.71C157.13 182.041 157.078 182.576 156.475 183.317C155.882 184.046 155.409 184.536 155.056 184.787C154.806 184.969 154.561 185.117 154.321 185.231C153.66 185.584 152.994 185.789 152.322 185.846C151.661 185.903 151 185.903 150.339 185.846C149.451 185.766 148.602 185.561 147.793 185.231C147.155 184.98 146.54 184.65 145.947 184.24C145.366 183.818 144.854 183.3 144.409 182.685C143.577 181.568 143.019 180.326 142.734 178.959C142.29 176.851 142.803 175.091 144.272 173.678C145.013 172.96 145.845 172.425 146.768 172.072C147.702 171.707 148.608 171.457 149.485 171.32C150.203 171.206 150.943 171.149 151.707 171.149C152.47 171.149 153.21 171.229 153.928 171.388ZM162.268 176.327C163.362 174.778 164.171 173.707 164.695 173.114C165.219 172.51 165.8 172.009 166.438 171.61C166.7 171.439 166.991 171.28 167.31 171.132C167.64 170.984 167.959 170.932 168.267 170.978C168.608 171.035 169.093 171.326 169.719 171.85C170.357 172.362 170.454 172.835 170.01 173.268C169.896 173.382 169.759 173.485 169.6 173.576C169.44 173.667 169.292 173.758 169.155 173.849C168.324 174.35 167.611 174.897 167.019 175.49C166.438 176.082 165.863 176.697 165.293 177.335C165.692 177.609 166.227 177.996 166.899 178.498C167.583 178.999 168.272 179.517 168.967 180.053C169.674 180.577 170.317 181.072 170.898 181.54C171.479 182.007 171.873 182.343 172.078 182.548C172.556 183.049 172.437 183.619 171.719 184.257C171.001 184.895 170.46 185.242 170.095 185.299C169.742 185.368 169.309 185.22 168.796 184.855C168.284 184.479 167.765 184.075 167.241 183.642C166.729 183.209 166.21 182.742 165.686 182.24C165.173 181.739 164.604 181.232 163.977 180.719C163.407 180.298 162.992 180.053 162.729 179.984C163.128 181.648 163.538 182.947 163.96 183.881C164.028 184.04 164.102 184.206 164.182 184.376C164.273 184.547 164.33 184.718 164.353 184.889C164.387 185.208 164.245 185.453 163.926 185.624C163.618 185.784 163.242 185.892 162.798 185.949C162.365 186.006 162.017 186.023 161.755 186C161.493 185.966 161.265 185.909 161.072 185.829C160.73 185.704 160.457 185.482 160.251 185.163C160.046 184.832 159.881 184.519 159.756 184.223C159.505 183.63 159.277 182.873 159.072 181.95C158.879 181.015 158.719 180.053 158.594 179.062C158.48 178.059 158.383 176.88 158.303 175.524C158.223 174.157 158.229 173.177 158.32 172.584C158.411 172.06 158.537 171.639 158.696 171.32C158.822 171.058 158.998 170.875 159.226 170.773C159.488 170.636 159.722 170.551 159.927 170.517C160.143 170.482 160.4 170.465 160.696 170.465C161.129 170.477 161.476 170.556 161.738 170.705C162 170.841 162.126 171.16 162.114 171.662C162.057 172.334 162.109 173.889 162.268 176.327ZM183.955 183.026C183.488 183.687 182.924 184.257 182.263 184.735C181.318 185.43 180.252 185.806 179.067 185.863C178.156 185.909 177.244 185.755 176.333 185.402C175.433 185.049 174.744 184.462 174.265 183.642C173.741 182.764 173.485 181.745 173.496 180.583C173.507 179.409 173.57 178.349 173.684 177.404C173.707 177.13 173.764 176.697 173.855 176.105C173.946 175.501 174.066 174.892 174.214 174.276C174.373 173.661 174.567 173.12 174.795 172.653C175.034 172.186 175.319 171.946 175.649 171.935C176.139 171.901 176.72 171.946 177.393 172.072C178.065 172.197 178.566 172.471 178.896 172.892C179.01 173.052 178.988 173.371 178.828 173.849C178.669 174.328 178.56 174.669 178.503 174.875C178.253 175.604 178.065 176.566 177.939 177.763C177.826 178.959 177.843 179.95 177.991 180.736C178.173 181.693 178.64 182.172 179.392 182.172C180.144 182.16 180.873 181.619 181.58 180.548C181.887 180.104 182.144 179.534 182.349 178.839C182.44 178.156 182.548 177.256 182.673 176.139C182.799 175.023 182.81 174.094 182.708 173.354C182.685 173.16 182.662 172.949 182.639 172.721C182.616 172.482 182.651 172.265 182.742 172.072C182.787 171.935 182.867 171.821 182.981 171.73C183.243 171.468 183.619 171.24 184.109 171.046C184.61 170.841 185.089 170.773 185.544 170.841C185.601 170.853 185.653 170.87 185.698 170.893C185.789 170.893 185.875 170.898 185.955 170.91C186.365 170.944 186.689 171.052 186.929 171.234C187.179 171.417 187.288 171.776 187.253 172.311C187.128 174.134 187.179 176.145 187.407 178.344C187.646 180.531 188.068 182.462 188.672 184.137C188.74 184.319 188.809 184.507 188.877 184.701C188.945 184.895 188.997 185.077 189.031 185.248C189.054 185.601 188.917 185.852 188.621 186C188.324 186.137 187.965 186.211 187.544 186.222C187.134 186.245 186.724 186.216 186.313 186.137C185.903 186.068 185.613 185.989 185.442 185.897C185.123 185.715 184.872 185.447 184.69 185.094C184.508 184.741 184.36 184.394 184.246 184.052C184.143 183.744 184.046 183.402 183.955 183.026ZM200.225 183.026C199.757 183.687 199.194 184.257 198.533 184.735C197.587 185.43 196.522 185.806 195.337 185.863C194.425 185.909 193.514 185.755 192.603 185.402C191.702 185.049 191.013 184.462 190.535 183.642C190.011 182.764 189.754 181.745 189.766 180.583C189.777 179.409 189.84 178.349 189.954 177.404C189.976 177.13 190.033 176.697 190.125 176.105C190.216 175.501 190.335 174.892 190.483 174.276C190.643 173.661 190.837 173.12 191.064 172.653C191.304 172.186 191.589 171.946 191.919 171.935C192.409 171.901 192.99 171.946 193.662 172.072C194.334 172.197 194.836 172.471 195.166 172.892C195.28 173.052 195.257 173.371 195.098 173.849C194.938 174.328 194.83 174.669 194.773 174.875C194.522 175.604 194.334 176.566 194.209 177.763C194.095 178.959 194.112 179.95 194.26 180.736C194.443 181.693 194.91 182.172 195.662 182.172C196.414 182.16 197.143 181.619 197.849 180.548C198.157 180.104 198.413 179.534 198.618 178.839C198.709 178.156 198.818 177.256 198.943 176.139C199.068 175.023 199.08 174.094 198.977 173.354C198.954 173.16 198.931 172.949 198.909 172.721C198.886 172.482 198.92 172.265 199.011 172.072C199.057 171.935 199.137 171.821 199.25 171.73C199.513 171.468 199.889 171.24 200.378 171.046C200.88 170.841 201.358 170.773 201.814 170.841C201.871 170.853 201.922 170.87 201.968 170.893C202.059 170.893 202.144 170.898 202.224 170.91C202.634 170.944 202.959 171.052 203.198 171.234C203.449 171.417 203.557 171.776 203.523 172.311C203.398 174.134 203.449 176.145 203.677 178.344C203.916 180.531 204.338 182.462 204.941 184.137C205.01 184.319 205.078 184.507 205.146 184.701C205.215 184.895 205.266 185.077 205.3 185.248C205.323 185.601 205.186 185.852 204.89 186C204.594 186.137 204.235 186.211 203.813 186.222C203.403 186.245 202.993 186.216 202.583 186.137C202.173 186.068 201.882 185.989 201.711 185.897C201.392 185.715 201.142 185.447 200.959 185.094C200.777 184.741 200.629 184.394 200.515 184.052C200.413 183.744 200.316 183.402 200.225 183.026ZM197.336 170.893C197.12 170.904 196.915 170.898 196.721 170.875C196.516 170.853 196.3 170.813 196.072 170.756C195.855 170.688 195.627 170.608 195.388 170.517C195.138 170.414 194.898 170.3 194.67 170.175C194.591 170.129 194.511 170.084 194.431 170.038C194.351 169.993 194.277 169.953 194.209 169.918C194.141 169.873 194.072 169.827 194.004 169.782C193.936 169.736 193.867 169.696 193.799 169.662C193.742 169.605 193.679 169.56 193.611 169.525C193.554 169.48 193.497 169.434 193.44 169.389C193.258 169.241 193.098 169.104 192.961 168.979C192.825 168.853 192.893 168.66 193.167 168.397C193.189 168.375 193.212 168.358 193.235 168.346C193.258 168.323 193.28 168.301 193.303 168.278C193.292 168.289 193.337 168.244 193.44 168.141C193.52 168.073 193.577 168.027 193.611 168.004C193.964 167.685 194.209 167.571 194.346 167.663C194.494 167.742 194.779 167.896 195.2 168.124C195.246 168.158 195.286 168.187 195.32 168.209C195.365 168.221 195.405 168.238 195.439 168.261C195.519 168.306 195.593 168.34 195.662 168.363C195.844 168.432 195.975 168.483 196.055 168.517C196.237 168.563 196.362 168.597 196.431 168.62C196.499 168.631 196.619 168.648 196.79 168.671C196.915 168.671 197.035 168.671 197.148 168.671C197.228 168.66 197.319 168.642 197.422 168.62C197.49 168.608 197.587 168.574 197.712 168.517C197.815 168.46 197.912 168.392 198.003 168.312C198.105 168.244 198.197 168.164 198.276 168.073C198.276 168.084 198.316 168.05 198.396 167.97C198.464 167.89 198.527 167.822 198.584 167.765C198.652 167.685 198.743 167.589 198.857 167.475C199.051 167.27 199.199 167.133 199.302 167.064C199.416 166.996 199.592 167.082 199.832 167.321C199.889 167.378 199.951 167.44 200.02 167.509C200.099 167.577 200.179 167.651 200.259 167.731C200.304 167.777 200.35 167.822 200.396 167.868C200.441 167.902 200.487 167.942 200.532 167.987C200.532 167.999 200.549 168.016 200.583 168.039C200.595 168.05 200.629 168.084 200.686 168.141C200.675 168.13 200.732 168.187 200.857 168.312C201.051 168.506 201.142 168.642 201.13 168.722C201.119 168.802 200.999 168.967 200.771 169.218C200.726 169.275 200.618 169.377 200.447 169.525C200.356 169.628 200.23 169.73 200.071 169.833C199.923 169.947 199.775 170.044 199.626 170.124C199.467 170.237 199.279 170.34 199.062 170.431C198.823 170.545 198.63 170.625 198.481 170.67C198.311 170.727 198.117 170.779 197.9 170.824C197.695 170.858 197.507 170.881 197.336 170.893ZM221.775 174.481C221.137 178.036 220.123 181.437 218.733 184.684C218.573 185.094 218.34 185.385 218.032 185.556C217.725 185.715 217.36 185.829 216.938 185.897C216.528 185.954 216.187 185.966 215.913 185.932C215.651 185.886 215.429 185.823 215.247 185.744C214.928 185.607 214.757 185.225 214.734 184.599C214.722 183.972 215.104 182.861 215.879 181.266C216.654 179.671 217.195 178.013 217.502 176.293C217.81 174.573 218.004 173.41 218.083 172.807C218.163 172.294 218.283 171.861 218.442 171.508C218.556 171.269 218.722 171.081 218.938 170.944C219.189 170.807 219.394 170.722 219.553 170.688C219.713 170.642 219.941 170.619 220.237 170.619C224.19 170.596 226.304 170.574 226.577 170.551C226.862 170.528 227.164 170.574 227.483 170.688C227.813 170.79 227.996 171.001 228.03 171.32C228.03 171.491 228.007 171.673 227.961 171.867C227.927 172.049 227.893 172.226 227.859 172.396C227.517 174.037 227.415 175.906 227.551 178.002C227.688 180.087 227.967 182.104 228.389 184.052C228.503 184.542 228.451 184.883 228.235 185.077C228.03 185.271 227.722 185.408 227.312 185.487C227.039 185.544 226.794 185.584 226.577 185.607C226.372 185.618 226.133 185.578 225.859 185.487C225.62 185.419 225.415 185.271 225.244 185.043C225.028 184.724 224.834 184.319 224.663 183.83C224.412 183.135 224.099 179.95 223.723 174.276L221.775 174.481ZM232.798 180.104C232.832 180.218 232.872 180.343 232.917 180.48C233.214 181.312 233.869 181.944 234.883 182.377C235.908 182.81 236.882 182.975 237.805 182.873C238.534 182.816 239.264 182.405 239.993 181.642C240.733 180.879 241.685 180.924 242.847 181.779C243.359 182.109 243.314 182.633 242.71 183.351C242.106 184.069 241.628 184.553 241.274 184.804C241.035 184.975 240.79 185.123 240.54 185.248C239.879 185.59 239.212 185.795 238.54 185.863C237.868 185.92 237.207 185.915 236.558 185.846C235.669 185.766 234.814 185.567 233.994 185.248C233.356 184.997 232.741 184.667 232.148 184.257C231.567 183.847 231.055 183.34 230.61 182.736C229.779 181.631 229.22 180.406 228.936 179.062C228.491 176.988 229.004 175.256 230.474 173.866C231.214 173.16 232.046 172.636 232.969 172.294C233.903 171.941 235.014 171.679 236.301 171.508C237.589 171.337 238.893 171.599 240.215 172.294C241.548 172.978 242.374 173.969 242.693 175.268C243.012 176.566 243.069 177.472 242.864 177.985C242.659 178.498 242.306 178.822 241.804 178.959C241.314 179.096 238.312 179.477 232.798 180.104ZM240.01 176.566C239.531 175.518 238.665 175.034 237.412 175.114C236.159 175.182 235.185 175.342 234.49 175.592C233.795 175.843 233.282 176.39 232.952 177.233C232.917 177.29 232.889 177.341 232.866 177.387L240.01 176.566ZM246.88 171.422L253.391 171.576C253.665 171.656 253.949 171.77 254.246 171.918C254.542 172.066 254.764 172.277 254.912 172.55C255.072 172.847 255.151 173.388 255.151 174.174C255.151 174.96 254.867 175.33 254.297 175.285C254.137 175.285 253.294 175.216 251.768 175.08C250.252 174.943 248.999 174.897 248.008 174.943C247.894 175.706 247.831 177.136 247.82 179.232C247.82 181.329 247.945 182.884 248.196 183.898C248.23 184.057 248.27 184.228 248.315 184.411C248.372 184.593 248.401 184.77 248.401 184.94C248.389 185.259 248.213 185.476 247.871 185.59C247.541 185.704 247.102 185.755 246.555 185.744C246.02 185.732 245.655 185.692 245.461 185.624C245.268 185.544 245.085 185.447 244.915 185.333C244.607 185.151 244.385 184.889 244.248 184.547C244.111 184.206 244.009 183.875 243.94 183.556C243.804 182.941 243.713 182.166 243.667 181.232C243.633 180.286 243.639 179.318 243.684 178.327C243.73 177.335 243.815 176.384 243.94 175.473C244.077 174.55 244.237 173.809 244.419 173.251C244.59 172.75 244.772 172.351 244.966 172.055C245.137 171.838 245.342 171.684 245.581 171.593C245.729 171.559 245.883 171.531 246.042 171.508C246.213 171.485 246.493 171.457 246.88 171.422ZM260.876 176.327C261.97 174.778 262.779 173.707 263.303 173.114C263.827 172.51 264.408 172.009 265.046 171.61C265.308 171.439 265.599 171.28 265.918 171.132C266.248 170.984 266.567 170.932 266.875 170.978C267.217 171.035 267.701 171.326 268.328 171.85C268.966 172.362 269.062 172.835 268.618 173.268C268.504 173.382 268.368 173.485 268.208 173.576C268.049 173.667 267.9 173.758 267.764 173.849C266.932 174.35 266.22 174.897 265.627 175.49C265.046 176.082 264.471 176.697 263.901 177.335C264.3 177.609 264.836 177.996 265.508 178.498C266.191 178.999 266.881 179.517 267.576 180.053C268.282 180.577 268.926 181.072 269.507 181.54C270.088 182.007 270.481 182.343 270.686 182.548C271.165 183.049 271.045 183.619 270.327 184.257C269.609 184.895 269.068 185.242 268.704 185.299C268.35 185.368 267.917 185.22 267.405 184.855C266.892 184.479 266.374 184.075 265.85 183.642C265.337 183.209 264.819 182.742 264.294 182.24C263.782 181.739 263.212 181.232 262.585 180.719C262.016 180.298 261.6 180.053 261.338 179.984C261.737 181.648 262.147 182.947 262.568 183.881C262.637 184.04 262.711 184.206 262.791 184.376C262.882 184.547 262.939 184.718 262.961 184.889C262.996 185.208 262.853 185.453 262.534 185.624C262.227 185.784 261.851 185.892 261.406 185.949C260.973 186.006 260.626 186.023 260.364 186C260.102 185.966 259.874 185.909 259.68 185.829C259.338 185.704 259.065 185.482 258.86 185.163C258.655 184.832 258.49 184.519 258.364 184.223C258.114 183.63 257.886 182.873 257.681 181.95C257.487 181.015 257.327 180.053 257.202 179.062C257.088 178.059 256.991 176.88 256.912 175.524C256.832 174.157 256.838 173.177 256.929 172.584C257.02 172.06 257.145 171.639 257.305 171.32C257.43 171.058 257.607 170.875 257.834 170.773C258.097 170.636 258.33 170.551 258.535 170.517C258.752 170.482 259.008 170.465 259.304 170.465C259.737 170.477 260.085 170.556 260.347 170.705C260.609 170.841 260.734 171.16 260.723 171.662C260.666 172.334 260.717 173.889 260.876 176.327ZM272.224 177.848C272.794 176.754 273.415 175.883 274.087 175.233C274.349 174.983 274.52 174.823 274.6 174.755C275.671 173.809 276.89 173.16 278.257 172.807C279.408 172.499 280.53 172.493 281.624 172.79C282.136 172.949 282.649 173.228 283.162 173.627C283.674 174.014 284.062 174.447 284.324 174.926C284.609 175.473 284.785 176.156 284.854 176.977C284.956 178.184 284.848 179.272 284.529 180.241C284.324 180.833 284.028 181.409 283.64 181.967C283.264 182.514 282.871 183.009 282.461 183.454C281.846 184.103 281.145 184.661 280.359 185.128C279.584 185.584 278.741 185.852 277.83 185.932C276.884 186 275.995 185.892 275.164 185.607C274.503 185.379 273.893 185.071 273.335 184.684C272.788 184.285 272.367 183.773 272.07 183.146C271.763 182.542 271.592 181.836 271.558 181.027C271.512 179.876 271.734 178.817 272.224 177.848ZM275.369 179.096C275.084 179.962 275.278 180.856 275.95 181.779C276.633 182.702 277.562 182.918 278.735 182.428C279.465 182.121 279.994 181.688 280.325 181.129C280.655 180.56 280.826 179.967 280.837 179.352C280.86 177.951 280.103 177.108 278.564 176.823C277.026 176.538 275.961 177.296 275.369 179.096Z" fill="#F3F3F3"/>
<path d="M59.1 120.45C60.75 126 58.35 127.5 52.8 127.5C49.65 127.5 43.05 126.9 36.3 123.3C33 121.5 26.7 115.05 22.5 116.4C20.7 117 19.5 118.05 19.65 124.35C19.8 128.85 22.8 139.05 29.85 144.3C36.15 148.95 44.25 154.95 62.25 154.95C76.5 154.95 91.05 146.4 91.05 126.6C91.05 94.95 49.65 108 50.4 84C50.55 76.5 57.6 70.2 64.35 70.2C69.6 70.2 71.85 74.55 69.15 84C67.2 90.6 67.65 93.9 75.15 95.4C78.6 96.45 81.45 97.65 83.55 97.05C87.6 96 89.55 91.05 90.3 89.7C96.45 78.75 96.45 71.1 97.2 64.65C97.95 58.2 92.55 53.4 86.85 51C79.5 47.85 72.15 44.85 60.15 44.85C42.45 44.85 20.85 61.65 20.85 84.3C20.85 113.85 55.95 109.95 59.1 120.45ZM106.359 144C110.559 148.95 120.909 152.85 130.509 152.85C132.609 152.85 133.509 151.35 133.509 149.4C133.359 144.45 133.509 138.9 133.959 133.35C140.109 133.05 146.109 132.45 151.509 131.85C152.559 140.7 153.609 146.85 154.959 148.05C159.159 151.95 170.409 152.85 180.009 152.85C182.109 152.85 183.309 151.65 183.009 149.7C182.859 147.75 180.909 136.95 179.109 119.7C175.509 86.4 175.059 58.65 174.609 54.15C174.309 51.9 173.559 50.85 171.159 49.95C167.259 48.45 155.859 46.5 151.059 46.5C148.809 46.5 147.909 47.7 147.759 49.2C147.609 49.95 147.609 50.7 147.609 51.75C143.259 50.4 138.159 49.2 135.459 48.3C133.509 47.85 132.609 48.6 131.859 49.8C123.909 60.9 114.309 87 108.909 110.1C105.759 110.25 103.059 110.25 100.959 110.1C99.6094 110.1 98.8594 110.85 98.8594 112.2C98.8594 115.2 102.309 123 105.609 128.25C105.159 132.3 104.859 136.05 104.859 139.35C104.859 141.6 105.159 142.65 106.359 144ZM149.409 107.85L136.959 108.75C138.909 97.05 141.609 85.2 145.059 74.7C145.509 73.8 145.959 73.5 146.559 73.65C147.309 73.8 147.759 74.4 147.759 75.75C148.059 85.8 148.659 97.05 149.409 107.85ZM224.749 154.05C229.849 156.75 233.599 153.3 234.349 150.3C240.349 127.5 259.549 84 271.249 64.95C272.449 62.85 273.799 59.55 273.499 56.85C273.199 54.6 271.399 52.95 270.199 52.2C266.299 49.5 259.399 42.3 254.449 43.5C252.649 43.65 251.149 45.75 250.099 46.8C246.199 51 235.849 70.5 227.899 92.55C225.649 80.25 225.049 66 222.049 48C221.449 44.55 216.199 44.25 214.099 44.7C207.199 46.05 195.799 47.55 191.749 52.05C189.649 54.3 188.899 59.7 189.349 62.4C191.899 77.25 196.699 92.55 202.249 106.35C205.249 113.7 208.549 115.5 214.249 114.9C210.799 122.7 207.799 129.45 206.149 134.25C205.249 136.8 205.249 144.45 209.449 146.55L224.749 154.05Z" fill="#B8CF9E"/>
<path d="M53.1 112.45C54.75 118 52.35 119.5 46.8 119.5C43.65 119.5 37.05 118.9 30.3 115.3C27 113.5 20.7 107.05 16.5 108.4C14.7 109 13.5 110.05 13.65 116.35C13.8 120.85 16.8 131.05 23.85 136.3C30.15 140.95 38.25 146.95 56.25 146.95C70.5 146.95 85.05 138.4 85.05 118.6C85.05 86.95 43.65 100 44.4 76C44.55 68.5 51.6 62.2 58.35 62.2C63.6 62.2 65.85 66.55 63.15 76C61.2 82.6 61.65 85.9 69.15 87.4C72.6 88.45 75.45 89.65 77.55 89.05C81.6 88 83.55 83.05 84.3 81.7C90.45 70.75 90.45 63.1 91.2 56.65C91.95 50.2 86.55 45.4 80.85 43C73.5 39.85 66.15 36.85 54.15 36.85C36.45 36.85 14.85 53.65 14.85 76.3C14.85 105.85 49.95 101.95 53.1 112.45ZM100.359 136C104.559 140.95 114.909 144.85 124.509 144.85C126.609 144.85 127.509 143.35 127.509 141.4C127.359 136.45 127.509 130.9 127.959 125.35C134.109 125.05 140.109 124.45 145.509 123.85C146.559 132.7 147.609 138.85 148.959 140.05C153.159 143.95 164.409 144.85 174.009 144.85C176.109 144.85 177.309 143.65 177.009 141.7C176.859 139.75 174.909 128.95 173.109 111.7C169.509 78.4 169.059 50.65 168.609 46.15C168.309 43.9 167.559 42.85 165.159 41.95C161.259 40.45 149.859 38.5 145.059 38.5C142.809 38.5 141.909 39.7 141.759 41.2C141.609 41.95 141.609 42.7 141.609 43.75C137.259 42.4 132.159 41.2 129.459 40.3C127.509 39.85 126.609 40.6 125.859 41.8C117.909 52.9 108.309 79 102.909 102.1C99.7594 102.25 97.0594 102.25 94.9594 102.1C93.6094 102.1 92.8594 102.85 92.8594 104.2C92.8594 107.2 96.3094 115 99.6094 120.25C99.1594 124.3 98.8594 128.05 98.8594 131.35C98.8594 133.6 99.1594 134.65 100.359 136ZM143.409 99.85L130.959 100.75C132.909 89.05 135.609 77.2 139.059 66.7C139.509 65.8 139.959 65.5 140.559 65.65C141.309 65.8 141.759 66.4 141.759 67.75C142.059 77.8 142.659 89.05 143.409 99.85ZM218.749 146.05C223.849 148.75 227.599 145.3 228.349 142.3C234.349 119.5 253.549 76 265.249 56.95C266.449 54.85 267.799 51.55 267.499 48.85C267.199 46.6 265.399 44.95 264.199 44.2C260.299 41.5 253.399 34.3 248.449 35.5C246.649 35.65 245.149 37.75 244.099 38.8C240.199 43 229.849 62.5 221.899 84.55C219.649 72.25 219.049 58 216.049 40C215.449 36.55 210.199 36.25 208.099 36.7C201.199 38.05 189.799 39.55 185.749 44.05C183.649 46.3 182.899 51.7 183.349 54.4C185.899 69.25 190.699 84.55 196.249 98.35C199.249 105.7 202.549 107.5 208.249 106.9C204.799 114.7 201.799 121.45 200.149 126.25C199.249 128.8 199.249 136.45 203.449 138.55L218.749 146.05Z" fill="#76B2F8"/>
<path d="M49.1 102.45C50.75 108 48.35 109.5 42.8 109.5C39.65 109.5 33.05 108.9 26.3 105.3C23 103.5 16.7 97.05 12.5 98.4C10.7 99 9.5 100.05 9.65 106.35C9.8 110.85 12.8 121.05 19.85 126.3C26.15 130.95 34.25 136.95 52.25 136.95C66.5 136.95 81.05 128.4 81.05 108.6C81.05 76.95 39.65 90 40.4 66C40.55 58.5 47.6 52.2 54.35 52.2C59.6 52.2 61.85 56.55 59.15 66C57.2 72.6 57.65 75.9 65.15 77.4C68.6 78.45 71.45 79.65 73.55 79.05C77.6 78 79.55 73.05 80.3 71.7C86.45 60.75 86.45 53.1 87.2 46.65C87.95 40.2 82.55 35.4 76.85 33C69.5 29.85 62.15 26.85 50.15 26.85C32.45 26.85 10.85 43.65 10.85 66.3C10.85 95.85 45.95 91.95 49.1 102.45ZM96.3594 126C100.559 130.95 110.909 134.85 120.509 134.85C122.609 134.85 123.509 133.35 123.509 131.4C123.359 126.45 123.509 120.9 123.959 115.35C130.109 115.05 136.109 114.45 141.509 113.85C142.559 122.7 143.609 128.85 144.959 130.05C149.159 133.95 160.409 134.85 170.009 134.85C172.109 134.85 173.309 133.65 173.009 131.7C172.859 129.75 170.909 118.95 169.109 101.7C165.509 68.4 165.059 40.65 164.609 36.15C164.309 33.9 163.559 32.85 161.159 31.95C157.259 30.45 145.859 28.5 141.059 28.5C138.809 28.5 137.909 29.7 137.759 31.2C137.609 31.95 137.609 32.7 137.609 33.75C133.259 32.4 128.159 31.2 125.459 30.3C123.509 29.85 122.609 30.6 121.859 31.8C113.909 42.9 104.309 69 98.9094 92.1C95.7594 92.25 93.0594 92.25 90.9594 92.1C89.6094 92.1 88.8594 92.85 88.8594 94.2C88.8594 97.2 92.3094 105 95.6094 110.25C95.1594 114.3 94.8594 118.05 94.8594 121.35C94.8594 123.6 95.1594 124.65 96.3594 126ZM139.409 89.85L126.959 90.75C128.909 79.05 131.609 67.2 135.059 56.7C135.509 55.8 135.959 55.5 136.559 55.65C137.309 55.8 137.759 56.4 137.759 57.75C138.059 67.8 138.659 79.05 139.409 89.85ZM214.749 136.05C219.849 138.75 223.599 135.3 224.349 132.3C230.349 109.5 249.549 66 261.249 46.95C262.449 44.85 263.799 41.55 263.499 38.85C263.199 36.6 261.399 34.95 260.199 34.2C256.299 31.5 249.399 24.3 244.449 25.5C242.649 25.65 241.149 27.75 240.099 28.8C236.199 33 225.849 52.5 217.899 74.55C215.649 62.25 215.049 48 212.049 30C211.449 26.55 206.199 26.25 204.099 26.7C197.199 28.05 185.799 29.55 181.749 34.05C179.649 36.3 178.899 41.7 179.349 44.4C181.899 59.25 186.699 74.55 192.249 88.35C195.249 95.7 198.549 97.5 204.249 96.9C200.799 104.7 197.799 111.45 196.149 116.25C195.249 118.8 195.249 126.45 199.449 128.55L214.749 136.05Z" fill="#ED7C68"/>
</svg>
